# xmcd
#
# Track frame offsets:
#	150
#	18478
#	34861
#	46758
#	66683
#	80962
#	93904
#	107832
#	124832
#	137561
#	151012
#
# Disc length: 2203 seconds
#
# Revision: 1
# Processed by: cddbd v1.4PL0 Copyright (c) Steve Scherf et al.
# Submitted via: audiograbber 1.81.01
#
DISCID=9108990b
DTITLE=Cosmo St. Clair - Now Blues for Now People
DYEAR=2002
DGENRE=Blues
TTITLE0=The Things I'd Do For You
TTITLE1=The Spider And The Fly
TTITLE2=If You Love Me
TTITLE3=Down Home Girl
TTITLE4=Little Bit
TTITLE5=Oh Baby (We Got A Good Thing Goin')
TTITLE6=Boom Boom
TTITLE7=Jealous Man
TTITLE8=Palm Of My Hand
TTITLE9=Sugar Coated Love
TTITLE10=Got Love If You Want It
EXTD=
EXTT0=
EXTT1=
EXTT2=
EXTT3=
EXTT4=
EXTT5=
EXTT6=
EXTT7=
EXTT8=
EXTT9=
EXTT10=
PLAYORDER=
